REM DIRINDEX 1
REM DIRNAME cjc118
TITLE ""
FILE "21_dokkai_1_q66_70.mp3" MP3
  TRACK 01 AUDIO
    TITLE "0:"
    INDEX 01 00:00:00
  TRACK 02 AUDIO
    TITLE "1:cjc118_1007"
    INDEX 01 00:00:11
  TRACK 03 AUDIO
    TITLE "1:cjc118_1008"
    INDEX 01 00:05:44
  TRACK 04 AUDIO
    TITLE "1:cjc118_1009"
    INDEX 01 00:08:32
  TRACK 05 AUDIO
    TITLE "1:cjc118_1010"
    INDEX 01 00:11:39
  TRACK 06 AUDIO
    TITLE "1:cjc118_1011"
    INDEX 01 00:14:74
  TRACK 07 AUDIO
    TITLE "1:cjc118_1012"
    INDEX 01 00:18:42
  TRACK 08 AUDIO
    TITLE "1:cjc118_1013"
    INDEX 01 00:20:08
  TRACK 09 AUDIO
    TITLE "1:cjc118_1014"
    INDEX 01 00:26:38
  TRACK 10 AUDIO
    TITLE "1:cjc118_1015"
    INDEX 01 00:29:34
  TRACK 11 AUDIO
    TITLE "1:cjc118_1016"
    INDEX 01 00:31:02
  TRACK 12 AUDIO
    TITLE "1:cjc118_1017"
    INDEX 01 00:36:15
  TRACK 13 AUDIO
    TITLE "1:cjc118_1018"
    INDEX 01 00:41:00
  TRACK 14 AUDIO
    TITLE "1:cjc118_1019"
    INDEX 01 00:45:14
  TRACK 15 AUDIO
    TITLE "1:cjc118_1020"
    INDEX 01 00:53:19
  TRACK 16 AUDIO
    TITLE "1:cjc118_1021"
    INDEX 01 00:59:55
  TRACK 17 AUDIO
    TITLE "1:cjc118_1022"
    INDEX 01 01:04:00
  TRACK 18 AUDIO
    TITLE "1:cjc118_1023"
    INDEX 01 01:10:10
  TRACK 19 AUDIO
    TITLE "1:cjc118_1024"
    INDEX 01 01:12:48
  TRACK 20 AUDIO
    TITLE "1:cjc118_1025"
    INDEX 01 01:15:03
  TRACK 21 AUDIO
    TITLE "1:cjc118_1026"
    INDEX 01 01:16:67
  TRACK 22 AUDIO
    TITLE "1:cjc118_1027"
    INDEX 01 01:18:33
  TRACK 23 AUDIO
    TITLE "1:cjc118_1028"
    INDEX 01 01:21:23
  TRACK 24 AUDIO
    TITLE "1:cjc118_1029"
    INDEX 01 01:24:04
  TRACK 25 AUDIO
    TITLE "1:cjc118_1030"
    INDEX 01 01:25:00
  TRACK 26 AUDIO
    TITLE "1:cjc118_1031"
    INDEX 01 01:27:61
  TRACK 27 AUDIO
    TITLE "1:cjc118_1032"
    INDEX 01 01:29:21
  TRACK 28 AUDIO
    TITLE "1:cjc118_1033"
    INDEX 01 01:34:55
  TRACK 29 AUDIO
    TITLE "1:cjc118_1034"
    INDEX 01 01:36:03
  TRACK 30 AUDIO
    TITLE "1:cjc118_1035"
    INDEX 01 01:37:62
  TRACK 31 AUDIO
    TITLE "1:cjc118_1036"
    INDEX 01 01:38:57
  TRACK 32 AUDIO
    TITLE "1:cjc118_1037"
    INDEX 01 01:42:00
  TRACK 33 AUDIO
    TITLE "1:cjc118_1038"
    INDEX 01 01:43:13
  TRACK 34 AUDIO
    TITLE "1:cjc118_1039"
    INDEX 01 01:46:39
  TRACK 35 AUDIO
    TITLE "1:cjc118_1040"
    INDEX 01 01:48:01
  TRACK 36 AUDIO
    TITLE "1:cjc118_1041"
    INDEX 01 01:55:22
  TRACK 37 AUDIO
    TITLE "1:cjc118_1042"
    INDEX 01 01:56:22
  TRACK 38 AUDIO
    TITLE "1:cjc118_1043"
    INDEX 01 01:58:44
  TRACK 39 AUDIO
    TITLE "1:cjc118_1044"
    INDEX 01 01:59:63
  TRACK 40 AUDIO
    TITLE "1:cjc118_1045"
    INDEX 01 02:03:20
  TRACK 41 AUDIO
    TITLE "1:cjc118_1046"
    INDEX 01 02:04:17
  TRACK 42 AUDIO
    TITLE "1:cjc118_1047"
    INDEX 01 02:07:51
  TRACK 43 AUDIO
    TITLE "1:cjc118_1048"
    INDEX 01 02:09:05
  TRACK 44 AUDIO
    TITLE "1:cjc118_1049"
    INDEX 01 02:14:67
  TRACK 45 AUDIO
    TITLE "1:cjc118_1050"
    INDEX 01 02:15:66
  TRACK 46 AUDIO
    TITLE "1:cjc118_1051"
    INDEX 01 02:18:18
  TRACK 47 AUDIO
    TITLE "1:cjc118_1052"
    INDEX 01 02:19:39
  TRACK 48 AUDIO
    TITLE "1:cjc118_1053"
    INDEX 01 02:23:03
  TRACK 49 AUDIO
    TITLE "1:cjc118_1054"
    INDEX 01 02:23:74
  TRACK 50 AUDIO
    TITLE "1:cjc118_1055"
    INDEX 01 02:27:69
  TRACK 51 AUDIO
    TITLE "1:cjc118_1056"
    INDEX 01 02:29:08
  TRACK 52 AUDIO
    TITLE "1:cjc118_1057"
    INDEX 01 02:33:62
  TRACK 53 AUDIO
    TITLE "1:cjc118_1058"
    INDEX 01 02:34:48
  TRACK 54 AUDIO
    TITLE "1:cjc118_1059"
    INDEX 01 02:37:23
  TRACK 55 AUDIO
    TITLE "1:cjc118_1060"
    INDEX 01 02:38:26
  TRACK 56 AUDIO
    TITLE "1:cjc118_1061"
    INDEX 01 02:41:36
  TRACK 57 AUDIO
    TITLE "1:cjc118_1062"
    INDEX 01 02:42:22
  TRACK 58 AUDIO
    TITLE "1:cjc118_1063"
    INDEX 01 02:46:06
  TRACK 59 AUDIO
    TITLE "1:cjc118_1064"
    INDEX 01 02:47:29
  TRACK 60 AUDIO
    TITLE "1:cjc118_1065"
    INDEX 01 02:51:72
  TRACK 61 AUDIO
    TITLE "1:cjc118_1066"
    INDEX 01 02:53:02
  TRACK 62 AUDIO
    TITLE "1:cjc118_1067"
    INDEX 01 02:55:44
  TRACK 63 AUDIO
    TITLE "1:cjc118_1068"
    INDEX 01 02:56:49
  TRACK 64 AUDIO
    TITLE "1:cjc118_1069"
    INDEX 01 02:59:69
  TRACK 65 AUDIO
    TITLE "1:cjc118_1070"
    INDEX 01 03:01:13
  TRACK 66 AUDIO
    TITLE "1:cjc118_1071"
    INDEX 01 03:04:55
  TRACK 67 AUDIO
    TITLE "1:cjc118_1072"
    INDEX 01 03:06:03
  TRACK 68 AUDIO
    TITLE "1:cjc118_1073"
    INDEX 01 03:08:35
  TRACK 69 AUDIO
    TITLE "1:cjc118_1074"
    INDEX 01 03:09:34
  TRACK 70 AUDIO
    TITLE "1:cjc118_1075"
    INDEX 01 03:12:00
  TRACK 71 AUDIO
    TITLE "1:cjc118_1076"
    INDEX 01 03:13:15
  TRACK 72 AUDIO
    TITLE "1:cjc118_1077"
    INDEX 01 03:15:06
  TRACK 73 AUDIO
    TITLE "1:cjc118_1078"
    INDEX 01 03:21:26
  TRACK 74 AUDIO
    TITLE "1:cjc118_1079"
    INDEX 01 03:27:21
  TRACK 75 AUDIO
    TITLE "1:cjc118_1080"
    INDEX 01 03:28:55
  TRACK 76 AUDIO
    TITLE "1:cjc118_1081"
    INDEX 01 03:30:48
  TRACK 77 AUDIO
    TITLE "1:cjc118_1082"
    INDEX 01 03:35:08
  TRACK 78 AUDIO
    TITLE "1:cjc118_1083"
    INDEX 01 03:36:24
  TRACK 79 AUDIO
    TITLE "1:cjc118_1084"
    INDEX 01 03:38:20
  TRACK 80 AUDIO
    TITLE "1:cjc118_1085"
    INDEX 01 03:39:34
  TRACK 81 AUDIO
    TITLE "1:cjc118_1086"
    INDEX 01 03:41:38
  TRACK 82 AUDIO
    TITLE "1:cjc118_1087"
    INDEX 01 03:42:57
  TRACK 83 AUDIO
    TITLE "1:cjc118_1088"
    INDEX 01 03:44:52
  TRACK 84 AUDIO
    TITLE "1:cjc118_1089"
    INDEX 01 03:45:60
  TRACK 85 AUDIO
    TITLE "1:cjc118_1090"
    INDEX 01 03:47:21
  TRACK 86 AUDIO
    TITLE "1:cjc118_1091"
    INDEX 01 03:48:70
  TRACK 87 AUDIO
    TITLE "1:cjc118_1092"
    INDEX 01 03:50:57
  TRACK 88 AUDIO
    TITLE "1:cjc118_1093"
    INDEX 01 03:55:07
  TRACK 89 AUDIO
    TITLE "1:cjc118_1094"
    INDEX 01 03:56:11
  TRACK 90 AUDIO
    TITLE "1:cjc118_1095"
    INDEX 01 03:58:27
  TRACK 91 AUDIO
    TITLE "1:cjc118_1096"
    INDEX 01 03:59:27
  TRACK 92 AUDIO
    TITLE "1:cjc118_1097"
    INDEX 01 04:01:06
  TRACK 93 AUDIO
    TITLE "1:cjc118_1098"
    INDEX 01 04:02:13
  TRACK 94 AUDIO
    TITLE "1:cjc118_1099"
    INDEX 01 04:03:69
  TRACK 95 AUDIO
    TITLE "1:cjc118_1100"
    INDEX 01 04:04:71
  TRACK 96 AUDIO
    TITLE "1:cjc118_1101"
    INDEX 01 04:06:27
  TRACK 97 AUDIO
    TITLE "1:cjc118_1102"
    INDEX 01 04:08:00
  TRACK 98 AUDIO
    TITLE "1:cjc118_1103"
    INDEX 01 04:09:50
  TRACK 99 AUDIO
    TITLE "1:cjc118_1104"
    INDEX 01 04:13:25
  TRACK 100 AUDIO
    TITLE "1:cjc118_1105"
    INDEX 01 04:14:40
  TRACK 101 AUDIO
    TITLE "1:cjc118_1106"
    INDEX 01 04:16:72
  TRACK 102 AUDIO
    TITLE "1:cjc118_1107"
    INDEX 01 04:18:08
  TRACK 103 AUDIO
    TITLE "1:cjc118_1108"
    INDEX 01 04:21:44
  TRACK 104 AUDIO
    TITLE "1:cjc118_1109"
    INDEX 01 04:22:63
  TRACK 105 AUDIO
    TITLE "1:cjc118_1110"
    INDEX 01 04:25:55
  TRACK 106 AUDIO
    TITLE "1:cjc118_1111"
    INDEX 01 04:26:65
  TRACK 107 AUDIO
    TITLE "1:cjc118_1112"
    INDEX 01 04:29:49
  TRACK 108 AUDIO
    TITLE "1:cjc118_1113"
    INDEX 01 04:31:25
  TRACK 109 AUDIO
    TITLE "1:cjc118_1114"
    INDEX 01 04:33:12
  TRACK 110 AUDIO
    TITLE "1:cjc118_1115"
    INDEX 01 04:41:29
  TRACK 111 AUDIO
    TITLE "1:cjc118_1116"
    INDEX 01 04:42:38
  TRACK 112 AUDIO
    TITLE "1:cjc118_1117"
    INDEX 01 04:43:73
  TRACK 113 AUDIO
    TITLE "1:cjc118_1118"
    INDEX 01 04:45:07
  TRACK 114 AUDIO
    TITLE "1:cjc118_1119"
    INDEX 01 04:46:34
  TRACK 115 AUDIO
    TITLE "1:cjc118_1120"
    INDEX 01 04:47:41
  TRACK 116 AUDIO
    TITLE "1:cjc118_1121"
    INDEX 01 04:48:64
  TRACK 117 AUDIO
    TITLE "1:cjc118_1122"
    INDEX 01 04:49:71
  TRACK 118 AUDIO
    TITLE "1:cjc118_1123"
    INDEX 01 04:51:08
  TRACK 119 AUDIO
    TITLE "1:cjc118_1124"
    INDEX 01 04:52:52
  TRACK 120 AUDIO
    TITLE "1:cjc118_1125"
    INDEX 01 04:54:10
  TRACK 121 AUDIO
    TITLE "1:cjc118_1126"
    INDEX 01 04:59:37
  TRACK 122 AUDIO
    TITLE "1:cjc118_1127"
    INDEX 01 05:00:48
  TRACK 123 AUDIO
    TITLE "1:cjc118_1128"
    INDEX 01 05:02:45
  TRACK 124 AUDIO
    TITLE "1:cjc118_1129"
    INDEX 01 05:03:62
  TRACK 125 AUDIO
    TITLE "1:cjc118_1130"
    INDEX 01 05:06:05
  TRACK 126 AUDIO
    TITLE "1:cjc118_1131"
    INDEX 01 05:07:22
  TRACK 127 AUDIO
    TITLE "1:cjc118_1132"
    INDEX 01 05:09:51
  TRACK 128 AUDIO
    TITLE "1:cjc118_1133"
    INDEX 01 05:10:58
  TRACK 129 AUDIO
    TITLE "0:"
    INDEX 01 05:12:69
